<svg width="21" height="21" viewBox="0 0 21 21" fill="none" xmlns="http://www.w3.org/2000/svg">
<rect width="21" height="21" rx="10.5" fill="black"/>
<path d="M10.502 5.3358C12.1854 5.3358 12.383 5.3433 13.0484 5.37332C13.6637 5.40083 13.9964 5.50338 14.219 5.59093C14.5141 5.70599 14.7242 5.84106 14.9444 6.06118C15.1645 6.2813 15.3021 6.49141 15.4146 6.78656C15.4997 7.00918 15.6047 7.34186 15.6322 7.95718C15.6622 8.62253 15.6697 8.82014 15.6697 10.5035C15.6697 12.1869 15.6622 12.3845 15.6322 13.0499C15.6047 13.6652 15.5022 13.9979 15.4146 14.2205C15.2996 14.5157 15.1645 14.7258 14.9444 14.9459C14.7242 15.166 14.5141 15.3036 14.219 15.4161C13.9964 15.5012 13.6637 15.6062 13.0484 15.6337C12.383 15.6638 12.1854 15.6713 10.502 15.6713C8.81862 15.6713 8.62101 15.6638 7.95566 15.6337C7.34033 15.6062 7.00766 15.5037 6.78504 15.4161C6.48988 15.3011 6.27977 15.166 6.05966 14.9459C5.83954 14.7258 5.70197 14.5157 5.58941 14.2205C5.50436 13.9979 5.39931 13.6652 5.37179 13.0499C5.34178 12.3845 5.33427 12.1869 5.33427 10.5035C5.33427 8.82014 5.34178 8.62253 5.37179 7.95718C5.39931 7.34186 5.50186 7.00918 5.58941 6.78656C5.70447 6.49141 5.83954 6.2813 6.05966 6.06118C6.27977 5.84106 6.48988 5.70349 6.78504 5.59093C7.00766 5.50589 7.34033 5.40083 7.95566 5.37332C8.62101 5.3408 8.82112 5.3358 10.502 5.3358ZM10.502 4.2002C8.7911 4.2002 8.57599 4.2077 7.90313 4.23772C7.23278 4.26773 6.77504 4.37529 6.37482 4.53037C5.9596 4.69045 5.60942 4.90807 5.25923 5.25826C4.90905 5.60844 4.69393 5.96113 4.53135 6.37385C4.37626 6.77406 4.26871 7.2318 4.23869 7.90465C4.20868 8.57501 4.20117 8.79012 4.20117 10.501C4.20117 12.2119 4.20868 12.427 4.23869 13.0999C4.26871 13.7703 4.37626 14.228 4.53135 14.6307C4.69143 15.0459 4.90905 15.3961 5.25923 15.7463C5.60942 16.0965 5.9621 16.3116 6.37482 16.4742C6.77504 16.6293 7.23278 16.7368 7.90563 16.7668C8.57849 16.7969 8.7911 16.8044 10.5045 16.8044C12.2179 16.8044 12.4305 16.7969 13.1034 16.7668C13.7737 16.7368 14.2315 16.6293 14.6342 16.4742C15.0494 16.3141 15.3996 16.0965 15.7498 15.7463C16.1 15.3961 16.3151 15.0434 16.4777 14.6307C16.6328 14.2305 16.7403 13.7728 16.7703 13.0999C16.8003 12.427 16.8078 12.2144 16.8078 10.501C16.8078 8.78762 16.8003 8.57501 16.7703 7.90215C16.7403 7.2318 16.6328 6.77406 16.4777 6.37134C16.3176 5.95612 16.1 5.60594 15.7498 5.25575C15.3996 4.90557 15.0469 4.69045 14.6342 4.52787C14.234 4.37279 13.7762 4.26523 13.1034 4.23521C12.428 4.2077 12.2129 4.2002 10.502 4.2002Z" fill="white"/>
<path d="M10.5014 7.2666C8.71542 7.2666 7.26465 8.71487 7.26465 10.5033C7.26465 12.2918 8.71291 13.74 10.5014 13.74C12.2898 13.74 13.7381 12.2918 13.7381 10.5033C13.7381 8.71487 12.2898 7.2666 10.5014 7.2666ZM10.5014 12.6019C9.34075 12.6019 8.40025 11.6614 8.40025 10.5008C8.40025 9.3402 9.34075 8.3997 10.5014 8.3997C11.662 8.3997 12.6025 9.3402 12.6025 10.5008C12.6025 11.6614 11.662 12.6019 10.5014 12.6019Z" fill="white"/>
<path d="M13.8658 7.89166C14.2829 7.89166 14.6212 7.55345 14.6212 7.13626C14.6212 6.71906 14.2829 6.38086 13.8658 6.38086C13.4486 6.38086 13.1104 6.71906 13.1104 7.13626C13.1104 7.55345 13.4486 7.89166 13.8658 7.89166Z" fill="white"/>
</svg>
