<svg width="133" height="32" viewBox="0 0 133 32" fill="none" xmlns="http://www.w3.org/2000/svg">
<g clip-path="url(#clip0_178_4846)">
<path d="M39.0117 22.5973H48.4737V19.7875H42.3747V9.2041H39.0117V22.5973Z" fill="#77304B"/>
<path d="M54.0796 20.7238C52.7306 20.7238 52.0276 19.5625 52.0276 17.8204C52.0276 16.0784 52.7306 14.8983 54.0796 14.8983C55.4286 14.8983 56.1506 16.0784 56.1506 17.8204C56.1506 19.5625 55.4286 20.7238 54.0796 20.7238ZM54.0986 22.8967C57.2336 22.8967 59.2856 20.7051 59.2856 17.8204C59.2856 14.9358 57.2336 12.7441 54.0986 12.7441C50.9826 12.7441 48.8926 14.9358 48.8926 17.8204C48.8926 20.7051 50.9826 22.8967 54.0986 22.8967Z" fill="#77304B"/>
<path d="M64.7119 25.9127C66.1559 25.9127 67.4289 25.5943 68.2839 24.845C69.0629 24.1519 69.5759 23.103 69.5759 21.6606V13.0066H66.6119V14.0368H66.5739C66.0039 13.2313 65.1299 12.7256 63.8379 12.7256C61.4249 12.7256 59.7529 14.7111 59.7529 17.5209C59.7529 20.4618 61.7859 22.0727 63.9709 22.0727C65.1489 22.0727 65.8899 21.6044 66.4599 20.9675H66.5359V21.9229C66.5359 23.0842 65.9849 23.7586 64.6739 23.7586C63.6479 23.7586 63.1349 23.3277 62.9639 22.822H59.9619C60.2659 24.8263 62.0329 25.9127 64.7119 25.9127ZM64.6929 19.8062C63.5339 19.8062 62.7739 18.8696 62.7739 17.4272C62.7739 15.9662 63.5339 15.0296 64.6929 15.0296C65.9849 15.0296 66.6689 16.116 66.6689 17.4085C66.6689 18.7572 66.0419 19.8062 64.6929 19.8062Z" fill="#77304B"/>
<path d="M75.6704 20.7238C74.3214 20.7238 73.6184 19.5625 73.6184 17.8204C73.6184 16.0784 74.3214 14.8983 75.6704 14.8983C77.0194 14.8983 77.7414 16.0784 77.7414 17.8204C77.7414 19.5625 77.0194 20.7238 75.6704 20.7238ZM75.6894 22.8967C78.8244 22.8967 80.876 20.7051 80.876 17.8204C80.876 14.9358 78.8244 12.7441 75.6894 12.7441C72.5734 12.7441 70.4834 14.9358 70.4834 17.8204C70.4834 20.7051 72.5734 22.8967 75.6894 22.8967Z" fill="#77304B"/>
<path d="M81.7803 22.5973H84.8773V13.0066H81.7803V22.5973ZM81.7803 11.6767H84.8773V9.2041H81.7803V11.6767Z" fill="#77304B"/>
<path d="M86.2217 25.7629H89.3187V21.6044H89.3567C89.9647 22.4099 90.8577 22.8969 92.1117 22.8969C94.6577 22.8969 96.3487 20.9113 96.3487 17.8019C96.3487 14.9172 94.7717 12.7256 92.1877 12.7256C90.8577 12.7256 89.9077 13.3063 89.2427 14.1679H89.1857V13.0066H86.2217V25.7629ZM91.3137 20.5367C89.9837 20.5367 89.2237 19.469 89.2237 17.9143C89.2237 16.3595 89.9077 15.1794 91.2567 15.1794C92.5867 15.1794 93.2137 16.2659 93.2137 17.9143C93.2137 19.5439 92.4917 20.5367 91.3137 20.5367Z" fill="#77304B"/>
<path d="M101.39 22.8969C103.936 22.8969 105.817 21.8105 105.817 19.7125C105.817 17.2587 103.803 16.8278 102.093 16.5469C100.858 16.3221 99.7562 16.2284 99.7562 15.5541C99.7562 14.9547 100.345 14.6737 101.105 14.6737C101.96 14.6737 102.549 14.9359 102.663 15.7976H105.513C105.361 13.9057 103.879 12.7256 101.124 12.7256C98.8252 12.7256 96.9252 13.7746 96.9252 15.7976C96.9252 18.0454 98.7302 18.495 100.421 18.7759C101.713 19.0007 102.891 19.0944 102.891 19.956C102.891 20.5742 102.302 20.9113 101.371 20.9113C100.345 20.9113 99.6992 20.443 99.5852 19.4877H96.6592C96.7542 21.6044 98.5402 22.8969 101.39 22.8969Z" fill="#77304B"/>
<path d="M110.024 22.8784C111.373 22.8784 112.228 22.354 112.931 21.4174H112.988V22.5975H115.952V13.0068H112.855V18.3641C112.855 19.5067 112.209 20.2935 111.145 20.2935C110.157 20.2935 109.682 19.7128 109.682 18.6638V13.0068H106.604V19.3007C106.604 21.4361 107.782 22.8784 110.024 22.8784Z" fill="#77304B"/>
<path d="M117.3 22.5972H120.397V17.2212C120.397 16.0786 120.967 15.2731 121.936 15.2731C122.867 15.2731 123.304 15.8725 123.304 16.9028V22.5972H126.401V17.2212C126.401 16.0786 126.952 15.2731 127.94 15.2731C128.871 15.2731 129.308 15.8725 129.308 16.9028V22.5972H132.405V16.3595C132.405 14.2054 131.303 12.7256 129.099 12.7256C127.845 12.7256 126.8 13.2501 126.04 14.4114H126.002C125.508 13.3812 124.539 12.7256 123.266 12.7256C121.86 12.7256 120.929 13.3812 120.321 14.374H120.264V13.0066H117.3V22.5972Z" fill="#77304B"/>
<path d="M20.1159 1.54323L17.0023 0.720703L14.3784 10.375L12.0095 1.65904L8.89575 2.48156L11.4552 11.8985L5.0802 5.61356L2.80085 7.86074L9.79342 14.7546L1.08528 12.4542L0.250977 15.5239L9.76572 18.0374C9.65678 17.5741 9.59915 17.0915 9.59915 16.5956C9.59915 13.0852 12.4856 10.2396 16.0462 10.2396C19.6068 10.2396 22.4932 13.0852 22.4932 16.5956C22.4932 17.0883 22.4363 17.568 22.3287 18.0285L30.9758 20.3127L31.8101 17.2431L22.2575 14.7196L30.9662 12.419L30.1319 9.34936L20.5797 11.8727L26.9547 5.58776L24.6753 3.34059L17.7798 10.1388L20.1159 1.54323Z" fill="#77304B"/>
<path d="M22.3206 18.0635C22.0537 19.1761 21.4901 20.1757 20.7168 20.9766L26.9813 27.1526L29.2606 24.9055L22.3206 18.0635Z" fill="#77304B"/>
<path d="M20.6533 21.042C19.8706 21.8301 18.8816 22.4181 17.7725 22.7212L20.052 31.1083L23.1656 30.2858L20.6533 21.042Z" fill="#77304B"/>
<path d="M17.6559 22.7515C17.1413 22.882 16.6019 22.9513 16.0461 22.9513C15.4506 22.9513 14.8739 22.8717 14.3265 22.7227L12.0449 31.1174L15.1585 31.9399L17.6559 22.7515Z" fill="#77304B"/>
<path d="M14.2166 22.6913C13.1244 22.3732 12.153 21.7776 11.3863 20.9873L5.10645 27.1785L7.3858 29.4257L14.2166 22.6913Z" fill="#77304B"/>
<path d="M11.3337 20.9327C10.5802 20.1374 10.0313 19.1512 9.77009 18.0557L1.09473 20.3474L1.92902 23.4171L11.3337 20.9327Z" fill="#77304B"/>
</g>
<defs>
<clipPath id="clip0_178_4846">
<rect width="133" height="32" fill="white"/>
</clipPath>
</defs>
</svg>
