<svg width="24" height="24" viewBox="0 0 24 24" fill="none" xmlns="http://www.w3.org/2000/svg">
<path d="M10.5364 3.62012C9.45641 3.6544 8.38841 3.74355 7.34098 3.85326C6.13349 3.98591 5.00757 4.5272 4.14986 5.38741C3.29214 6.24762 2.75413 7.3751 2.62498 8.58297C2.48113 9.91945 2.4039 11.2623 2.39355 12.6064C2.39355 13.971 2.49298 15.315 2.62498 16.6298C2.75376 17.838 3.29161 18.9659 4.14936 19.8265C5.00711 20.687 6.13323 21.2285 7.34098 21.3613C8.66441 21.4984 10.017 21.6064 11.3936 21.6064C12.7684 21.6064 14.1193 21.4984 15.4444 21.3595C16.6519 21.2269 17.7778 20.6856 18.6355 19.8254C19.4933 18.9652 20.0313 17.8377 20.1604 16.6298C20.2547 15.6904 20.3318 14.7355 20.3696 13.7687" stroke="black" stroke-width="1.71429" stroke-linecap="round" stroke-linejoin="round"/>
<path d="M18.2857 10.0714C21.0286 10.0714 22.5714 8.52857 22.5714 5.78571C22.5714 3.04286 21.0286 1.5 18.2857 1.5C15.5429 1.5 14 3.04286 14 5.78571C14 8.52857 15.5429 10.0714 18.2857 10.0714Z" fill="#EE721B"/>
</svg>
