<svg width="28" height="48" viewBox="0 0 28 48" fill="none" xmlns="http://www.w3.org/2000/svg">
<mask id="mask0_178_4871" style="mask-type:alpha" maskUnits="userSpaceOnUse" x="0" y="0" width="28" height="48">
<rect width="28" height="48" rx="2" fill="black" fill-opacity="0.7"/>
</mask>
<g mask="url(#mask0_178_4871)">
<path d="M22.4483 29.4483C22.1437 29.753 21.6497 29.753 21.345 29.4483L16.6064 24.7097C15.8774 23.9807 14.7172 23.9585 13.7614 24.3449C13.6804 24.3776 13.5981 24.409 13.5147 24.4389C12.8342 24.6832 12.1302 24.8053 11.4027 24.8053C9.6132 24.8053 8.09872 24.1858 6.85923 22.9466C5.61974 21.7074 5 20.1933 5 18.4043C5 16.6153 5.61959 15.1007 6.85876 13.8604C8.09794 12.6201 9.61203 12 11.401 12C13.19 12 14.7047 12.6197 15.945 13.8592C17.1852 15.0987 17.8054 16.6132 17.8054 18.4027C17.8054 19.1503 17.6799 19.8644 17.4288 20.545C17.4026 20.616 17.3755 20.686 17.3475 20.7551C16.959 21.7131 16.9836 22.8802 17.7146 23.6113L22.4483 28.345C22.753 28.6497 22.753 29.1437 22.4483 29.4483ZM11.4027 23.2349C12.7517 23.2349 13.8943 22.7668 14.8305 21.8305C15.7668 20.8943 16.2349 19.7517 16.2349 18.4027C16.2349 17.0537 15.7668 15.911 14.8305 14.9748C13.8943 14.0385 12.7517 13.5704 11.4027 13.5704C10.0537 13.5704 8.91104 14.0385 7.97479 14.9748C7.03856 15.911 6.57045 17.0537 6.57045 18.4027C6.57045 19.7517 7.03856 20.8943 7.97479 21.8305C8.91104 22.7668 10.0537 23.2349 11.4027 23.2349Z" fill="black" fill-opacity="0.7"/>
</g>
</svg>
