<svg width="18" height="19" viewBox="0 0 18 19" fill="none" xmlns="http://www.w3.org/2000/svg">
<path d="M6.48961 3.28846L7.05192 1.83692C7.14675 1.59116 7.3136 1.37977 7.5306 1.23043C7.74761 1.0811 8.00465 1.00078 8.26807 1H9.34038C9.6038 1.00078 9.86085 1.0811 10.0779 1.23043C10.2949 1.37977 10.4617 1.59116 10.5565 1.83692L11.1188 3.28846L13.028 4.38692L14.5711 4.15154C14.8281 4.11666 15.0896 4.15895 15.3225 4.27305C15.5553 4.38715 15.7489 4.56788 15.8788 4.79231L16.4019 5.70769C16.5359 5.93569 16.5978 6.19897 16.5791 6.46278C16.5604 6.72659 16.4622 6.97855 16.2973 7.18539L15.3426 8.40154V10.5985L16.3234 11.8146C16.4883 12.0215 16.5865 12.2734 16.6052 12.5372C16.6239 12.801 16.5621 13.0643 16.428 13.2923L15.9049 14.2077C15.7751 14.4321 15.5814 14.6128 15.3487 14.727C15.1158 14.841 14.8542 14.8834 14.5973 14.8485L13.0542 14.6131L11.145 15.7115L10.5827 17.1631C10.4879 17.4088 10.321 17.6202 10.104 17.7696C9.88701 17.9189 9.62995 17.9992 9.36653 18H8.26807C8.00465 17.9992 7.74761 17.9189 7.5306 17.7696C7.3136 17.6202 7.14675 17.4088 7.05192 17.1631L6.48961 15.7115L4.58038 14.6131L3.0373 14.8485C2.78037 14.8834 2.51885 14.841 2.28601 14.727C2.05317 14.6128 1.8595 14.4321 1.72961 14.2077L1.20653 13.2923C1.07249 13.0643 1.01074 12.801 1.02942 12.5372C1.04809 12.2734 1.14633 12.0215 1.31115 11.8146L2.26576 10.5985V8.40154L1.28499 7.18539C1.12017 6.97855 1.02194 6.72659 1.00326 6.46278C0.984591 6.19897 1.04634 5.93569 1.18038 5.70769L1.70346 4.79231C1.83335 4.56788 2.02702 4.38715 2.25985 4.27305C2.4927 4.15895 2.75421 4.11666 3.01115 4.15154L4.55423 4.38692L6.48961 3.28846ZM6.18884 9.5C6.18884 10.0173 6.34223 10.5229 6.62961 10.953C6.917 11.3831 7.32546 11.7183 7.80336 11.9163C8.28127 12.1142 8.80713 12.166 9.31446 12.0651C9.82179 11.9642 10.2878 11.7151 10.6536 11.3494C11.0194 10.9836 11.2684 10.5176 11.3694 10.0102C11.4703 9.5029 11.4185 8.97704 11.2205 8.49913C11.0226 8.02124 10.6874 7.61276 10.2573 7.32539C9.82715 7.03801 9.3215 6.88462 8.80423 6.88462C8.11059 6.88462 7.44535 7.16016 6.95487 7.65065C6.4644 8.14112 6.18884 8.80636 6.18884 9.5Z" stroke="black" stroke-width="1.5" stroke-linecap="round" stroke-linejoin="round"/>
</svg>
