<svg width="21" height="21" viewBox="0 0 21 21" fill="none" xmlns="http://www.w3.org/2000/svg">
<rect width="21" height="21" rx="10.5" fill="#1D9BF0"/>
<path d="M8.57823 16.0392C13.235 16.0392 15.7812 12.1805 15.7812 8.83622C15.7812 8.72597 15.7812 8.61572 15.776 8.51072C16.2695 8.15372 16.7 7.70747 17.0412 7.19822C16.5897 7.39772 16.1015 7.53422 15.587 7.59722C16.112 7.28222 16.511 6.78872 16.7 6.19547C16.2117 6.48422 15.671 6.69422 15.0935 6.80972C14.6315 6.31622 13.9752 6.01172 13.2455 6.01172C11.849 6.01172 10.715 7.14572 10.715 8.54222C10.715 8.74172 10.736 8.93597 10.7832 9.11972C8.67798 9.01472 6.81423 8.00672 5.56473 6.47372C5.34948 6.84647 5.22348 7.28222 5.22348 7.74422C5.22348 8.62097 5.66973 9.39797 6.35223 9.84947C5.93748 9.83897 5.54898 9.72347 5.20773 9.53447C5.20773 9.54497 5.20773 9.55547 5.20773 9.56597C5.20773 10.7945 6.07923 11.813 7.23948 12.0492C7.02948 12.107 6.80373 12.1385 6.57273 12.1385C6.40998 12.1385 6.25248 12.1227 6.09498 12.0912C6.41523 13.0992 7.34973 13.829 8.45748 13.85C7.59123 14.5272 6.49923 14.9315 5.31273 14.9315C5.10798 14.9315 4.90848 14.921 4.70898 14.8947C5.81673 15.6192 7.15023 16.0392 8.57823 16.0392Z" fill="white"/>
</svg>
