<svg width="18" height="18" viewBox="0 0 18 18" fill="none" xmlns="http://www.w3.org/2000/svg">
<path d="M17 8.92615C17.0011 8.75532 16.9667 8.58612 16.8989 8.42932C16.8311 8.27252 16.7314 8.13155 16.6061 8.01538L10.356 2.25066C9.59001 1.54419 8.40998 1.54419 7.64403 2.25066L1.39387 8.01538C1.26861 8.13155 1.1689 8.27252 1.1011 8.42932C1.03329 8.58612 0.998872 8.75532 1.00003 8.92615V15.7692C1.00003 16.0957 1.1297 16.4087 1.36051 16.6395C1.59132 16.8703 1.90437 17 2.23079 17H15.7692C16.0956 17 16.4087 16.8703 16.6395 16.6395C16.8703 16.4087 17 16.0957 17 15.7692V8.92615Z" stroke="#000001" stroke-width="2" stroke-linecap="round" stroke-linejoin="round"/>
</svg>
