<svg width="22" height="22" viewBox="0 0 22 22" fill="none" xmlns="http://www.w3.org/2000/svg">
<path d="M19.4172 7.90644C19.335 7.26113 19.4358 8.0524 19.4172 7.90644ZM19.4172 7.90644C19.1127 6.29135 17.9875 5.59375 16.2466 5.34718C16.2262 5.34443 16.2058 5.34167 16.1854 5.3389C16.1736 5.2629 16.1625 5.18677 16.1523 5.11054C17.9544 4.29969 17.4877 1.77941 15.732 1.4137C14.2939 1.11584 10.9578 1 8.96379 1C7.07069 1 5.80476 1.26477 4.45113 1.54609C4.37832 1.56263 4.30551 1.57918 4.23104 1.59242C2.78309 1.89525 1.62969 3.48387 1.37484 5.46467L1.35995 5.5772C1.10858 7.3337 0.988552 9.1065 1.00086 10.8809C1.00086 11.3028 1.00582 11.6917 1.0141 12.0541C1.00582 12.3255 1.00086 12.6167 1.00086 12.9312C1.00086 14.9748 1.2044 16.0538 1.43276 17.2634L1.44931 17.3561C1.75545 18.9712 3.14218 20.2686 4.88138 20.5168L5.14615 20.5532C6.77117 20.7849 8.29028 21 10.564 21C12.8377 21 14.3568 20.7849 15.9818 20.5532L16.2466 20.5151C17.9875 20.2686 19.3924 19.4084 19.6952 17.7917L19.6855 17.8415M19.6855 17.8415C18.9567 19.4172 19.6077 18.4819 19.6855 17.8415Z" stroke="black" stroke-width="1.71429" stroke-linecap="round" stroke-linejoin="round"/>
<path d="M6.8584 5.32475C7.9936 5.2387 9.86849 5.03516 11.8179 5.03516C13.8367 5.03516 14.7915 5.13775 16.1154 5.32309" stroke="black" stroke-width="1.71429" stroke-linecap="round" stroke-linejoin="round"/>
<path d="M19.012 15.7341H15.4926C14.5798 15.7341 13.7043 15.4431 13.0589 14.925C12.4134 14.4069 12.0508 13.7042 12.0508 12.9716C12.0508 12.2389 12.4134 11.5362 13.0589 11.0181C13.7043 10.5 14.5798 10.209 15.4926 10.209H19.012C19.608 10.209 20.1797 10.399 20.6011 10.7373C21.0226 11.0756 21.2594 11.5344 21.2594 12.0128V13.9303C21.2594 14.4087 21.0226 14.8675 20.6011 15.2058C20.1797 15.5441 19.608 15.7341 19.012 15.7341Z" fill="#EE721B"/>
</svg>
