<svg width="21" height="21" viewBox="0 0 21 21" fill="none" xmlns="http://www.w3.org/2000/svg">
<rect width="21" height="21" rx="10.5" fill="url(#paint0_linear_178_5169)"/>
<path d="M4.13086 16.6084L5.03118 13.3391C4.47456 12.3795 4.18257 11.2927 4.18561 10.1817C4.18561 6.70051 7.03256 3.87012 10.5274 3.87012C12.2246 3.87012 13.8184 4.52701 15.0137 5.71971C16.2121 6.91241 16.8722 8.49864 16.8691 10.1848C16.8691 13.666 14.0222 16.4964 10.5243 16.4964H10.5213C9.45976 16.4964 8.41649 16.23 7.4888 15.7275L4.13086 16.6084ZM7.65 14.5863L7.84162 14.7013C8.65069 15.1796 9.57838 15.4308 10.5243 15.4339H10.5274C13.4321 15.4339 15.7985 13.0818 15.7985 10.1878C15.7985 8.78622 15.251 7.46941 14.2564 6.4765C13.2618 5.48359 11.9356 4.9387 10.5274 4.9387C7.62263 4.93568 5.25626 7.28778 5.25626 10.1817C5.25626 11.1716 5.53304 12.1373 6.06228 12.9728L6.18699 13.1726L5.65471 15.1069L7.65 14.5863Z" fill="white"/>
<path d="M4.35254 16.3871L5.22244 13.2298C4.68407 12.3065 4.4012 11.2561 4.4012 10.1845C4.40425 6.82434 7.15082 4.09082 10.527 4.09082C12.1664 4.09082 13.7025 4.72652 14.8583 5.87684C16.0141 7.02716 16.6498 8.55891 16.6498 10.1875C16.6498 13.5477 13.9002 16.2812 10.527 16.2812H10.524C9.49894 16.2812 8.49217 16.0239 7.59794 15.5395L4.35254 16.3871Z" fill="url(#paint1_linear_178_5169)"/>
<path d="M4.13086 16.6084L5.03118 13.3391C4.47456 12.3795 4.18257 11.2927 4.18561 10.1817C4.18561 6.70051 7.03256 3.87012 10.5274 3.87012C12.2246 3.87012 13.8184 4.52701 15.0137 5.71971C16.2121 6.91241 16.8722 8.49864 16.8691 10.1848C16.8691 13.666 14.0222 16.4964 10.5243 16.4964H10.5213C9.45976 16.4964 8.41649 16.23 7.4888 15.7275L4.13086 16.6084ZM7.65 14.5863L7.84162 14.7013C8.65069 15.1796 9.57838 15.4308 10.5243 15.4339H10.5274C13.4321 15.4339 15.7985 13.0818 15.7985 10.1878C15.7985 8.78622 15.251 7.46941 14.2564 6.4765C13.2618 5.48359 11.9356 4.9387 10.5274 4.9387C7.62263 4.93568 5.25626 7.28778 5.25626 10.1817C5.25626 11.1716 5.53304 12.1373 6.06228 12.9728L6.18699 13.1726L5.65471 15.1069L7.65 14.5863Z" fill="url(#paint2_linear_178_5169)"/>
<path fill-rule="evenodd" clip-rule="evenodd" d="M8.94303 7.54207C8.8244 7.27871 8.6997 7.27266 8.58716 7.26963C8.49591 7.2666 8.38945 7.2666 8.283 7.2666C8.17654 7.2666 8.00621 7.30595 7.86021 7.46337C7.71422 7.62078 7.30664 8.0022 7.30664 8.78018C7.30664 9.55513 7.87542 10.3059 7.9545 10.4118C8.03359 10.5178 9.05253 12.1615 10.6615 12.7942C11.9998 13.3209 12.2736 13.215 12.5625 13.1877C12.8515 13.1605 13.4994 12.8063 13.6332 12.437C13.764 12.0677 13.764 11.7528 13.7244 11.6863C13.6849 11.6197 13.5784 11.5803 13.4203 11.5016C13.2621 11.4229 12.4835 11.0415 12.3375 10.987C12.1915 10.9355 12.085 10.9083 11.9816 11.0657C11.8751 11.2231 11.571 11.5773 11.4797 11.6832C11.3885 11.7892 11.2942 11.8013 11.136 11.7226C10.9779 11.6439 10.4669 11.4774 9.86159 10.9385C9.39014 10.5208 9.07078 10.0032 8.97953 9.84574C8.88828 9.68833 8.9704 9.60357 9.04948 9.52486C9.11944 9.45524 9.20765 9.3402 9.28673 9.24939C9.36581 9.15857 9.39319 9.09198 9.44489 8.98603C9.4966 8.88008 9.47227 8.78926 9.43273 8.71056C9.39319 8.63488 9.08294 7.85387 8.94303 7.54207Z" fill="white"/>
<defs>
<linearGradient id="paint0_linear_178_5169" x1="10.4995" y1="20.999" x2="10.4995" y2="-0.000734736" gradientUnits="userSpaceOnUse">
<stop stop-color="#20B038"/>
<stop offset="1" stop-color="#60D66A"/>
</linearGradient>
<linearGradient id="paint1_linear_178_5169" x1="10.5008" y1="16.3865" x2="10.5008" y2="4.09039" gradientUnits="userSpaceOnUse">
<stop stop-color="#20B038"/>
<stop offset="1" stop-color="#60D66A"/>
</linearGradient>
<linearGradient id="paint2_linear_178_5169" x1="10.5012" y1="16.6072" x2="10.5012" y2="3.87012" gradientUnits="userSpaceOnUse">
<stop stop-color="#F9F9F9"/>
<stop offset="1" stop-color="white"/>
</linearGradient>
</defs>
</svg>
