<svg width="21" height="21" viewBox="0 0 21 21" fill="none" xmlns="http://www.w3.org/2000/svg">
<rect width="21" height="21" rx="10.5" fill="#FF0000"/>
<path d="M17.6914 6.89347C17.5184 6.25091 17.0118 5.74428 16.3692 5.57128C15.1953 5.25 10.4997 5.25 10.4997 5.25C10.4997 5.25 5.80405 5.25 4.63014 5.55892C3.99994 5.73192 3.48094 6.25091 3.30795 6.89347C2.99902 8.06738 2.99902 10.5017 2.99902 10.5017C2.99902 10.5017 2.99902 12.9484 3.30795 14.1099C3.48094 14.7525 3.98758 15.2591 4.63014 15.4321C5.8164 15.7534 10.4997 15.7534 10.4997 15.7534C10.4997 15.7534 15.1953 15.7534 16.3692 15.4445C17.0118 15.2715 17.5184 14.7648 17.6914 14.1223C18.0003 12.9484 18.0003 10.5141 18.0003 10.5141C18.0003 10.5141 18.0127 8.06738 17.6914 6.89347Z" fill="white"/>
<path d="M9.00488 12.7509L12.9097 10.5019L9.00488 8.25293V12.7509Z" fill="#FF0000"/>
</svg>
